<?xml version="1.0" standalone="no"?>
<!DOCTYPE svg PUBLIC "-//W3C//DTD SVG 20010904//EN"
 "http://www.w3.org/TR/2001/REC-SVG-20010904/DTD/svg10.dtd">
<svg version="1.0" xmlns="http://www.w3.org/2000/svg"
 width="1280.000000pt" height="1278.000000pt" viewBox="0 0 1280.000000 1278.000000"
 preserveAspectRatio="xMidYMid meet">
<g transform="translate(0.000000,1278.000000) scale(0.100000,-0.100000)"
fill="#000000" stroke="none">
<path d="M7239 12760 c-20 -11 -46 -31 -57 -44 -11 -14 -154 -276 -318 -583
-206 -384 -311 -570 -339 -599 l-40 -42 -135 -7 c-74 -4 -193 -8 -265 -8 -199
-3 -155 -47 -582 570 -197 285 -376 537 -399 562 -37 40 -46 45 -95 48 -49 4
-104 -12 -633 -190 -397 -135 -586 -203 -603 -219 -48 -44 -55 -75 -43 -216
18 -225 69 -883 81 -1033 11 -140 10 -148 -11 -196 -12 -28 -33 -62 -48 -75
-15 -14 -116 -86 -225 -161 -207 -142 -241 -157 -321 -144 -18 3 -305 118
-639 256 -333 138 -619 251 -635 251 -70 0 -97 -28 -481 -505 -242 -300 -375
-473 -383 -497 -8 -29 -8 -48 0 -76 7 -23 155 -226 392 -537 209 -275 386
-514 395 -532 8 -17 15 -57 15 -88 0 -50 -14 -90 -110 -322 -61 -146 -121
-278 -133 -295 -49 -67 -57 -69 -747 -194 -700 -125 -699 -125 -733 -196 -24
-51 -91 -554 -122 -923 -8 -99 -18 -215 -21 -257 l-7 -78 39 -16 c21 -9 308
-115 637 -235 330 -120 613 -226 630 -236 18 -11 46 -39 62 -64 27 -40 36 -75
89 -364 62 -337 65 -383 30 -449 -12 -23 -206 -211 -499 -484 -426 -397 -482
-452 -494 -491 -12 -37 -12 -50 0 -85 24 -71 501 -989 529 -1018 15 -14 44
-31 66 -38 36 -11 89 0 665 129 345 78 641 141 659 141 80 0 118 -30 371 -294
132 -138 250 -267 260 -288 40 -78 41 -72 -131 -746 -119 -463 -161 -641 -156
-665 14 -75 20 -79 532 -367 516 -290 535 -299 604 -270 16 7 233 219 481 472
262 266 468 467 490 478 74 38 93 36 459 -45 372 -83 399 -92 444 -163 13 -20
114 -310 225 -643 146 -439 208 -612 224 -627 54 -50 93 -62 198 -62 55 0 142
4 192 10 51 5 178 17 282 25 291 24 546 55 576 70 33 17 77 69 84 98 3 12 64
301 136 642 83 398 137 630 149 650 43 69 69 83 379 200 260 99 311 115 359
115 32 -1 69 -6 84 -13 15 -7 242 -185 504 -397 262 -212 493 -395 513 -407
44 -28 104 -30 148 -6 57 33 925 697 941 721 8 13 17 44 20 70 4 43 -18 106
-228 657 -128 335 -234 623 -237 641 -11 69 21 130 178 344 83 113 163 218
177 234 38 40 98 66 157 66 28 0 325 -29 660 -65 588 -63 612 -65 652 -50 24
9 51 29 62 43 22 32 419 1114 427 1163 4 24 -2 48 -18 79 -20 40 -78 86 -508
402 -641 472 -587 429 -617 496 l-26 56 16 248 c16 263 26 307 78 354 11 10
284 151 607 314 l587 296 27 49 c30 54 33 76 18 103 -5 9 -66 277 -134 595
-82 380 -132 589 -145 610 -42 68 -18 65 -746 112 -613 40 -668 45 -709 65
-63 30 -80 54 -192 262 -93 173 -98 185 -98 243 0 36 7 72 17 92 9 17 159 271
333 565 174 293 321 548 326 565 22 79 21 81 -455 565 -243 247 -454 456 -469
464 -15 8 -48 14 -73 14 -41 0 -100 -30 -616 -316 -335 -186 -587 -320 -612
-326 -68 -14 -112 2 -294 105 -222 126 -249 156 -258 289 -3 40 -15 336 -26
658 -11 322 -24 599 -30 617 -11 36 -67 90 -102 98 -716 174 -1188 287 -1207
290 -14 2 -41 -5 -61 -15z m-549 -2620 c920 -78 1731 -450 2370 -1090 612
-611 985 -1393 1082 -2265 17 -154 17 -634 0 -775 -106 -876 -451 -1611 -1042
-2224 -594 -614 -1361 -995 -2245 -1113 -166 -22 -694 -25 -855 -5 -635 80
-1160 271 -1665 605 -602 399 -1088 979 -1371 1637 -229 533 -326 1067 -302
1661 36 903 412 1776 1048 2433 385 397 829 693 1345 894 301 117 653 202 965
231 63 6 131 13 150 14 81 8 414 6 520 -3z"/>
</g>
</svg>
